<svg class="animated" id="freepik_stories-astronaut" xmlns="http://www.w3.org/2000/svg" viewBox="0 0 500 500" version="1.1" xmlns:xlink="http://www.w3.org/1999/xlink" xmlns:svgjs="http://svgjs.com/svgjs"><style>svg#freepik_stories-astronaut:not(.animated) .animable {opacity: 0;}svg#freepik_stories-astronaut.animated #freepik--Stars--inject-15 {animation: 1s 1 forwards cubic-bezier(.36,-0.01,.5,1.38) fadeIn,6s Infinite  linear spin;animation-delay: 0s,1s;}svg#freepik_stories-astronaut.animated #freepik--Spaceship--inject-15 {animation: 1s 1 forwards cubic-bezier(.36,-0.01,.5,1.38) slideRight,1.5s Infinite  linear wind;animation-delay: 0s,1s;}svg#freepik_stories-astronaut.animated #freepik--Character--inject-15 {animation: 1s 1 forwards cubic-bezier(.36,-0.01,.5,1.38) slideRight,1.5s Infinite  linear floating;animation-delay: 0s,1s;}            @keyframes fadeIn {                0% {                    opacity: 0;                }                100% {                    opacity: 1;                }            }                 @keyframes spin {             from {                 transform: rotate(0);               }               to {                 transform: rotate(360deg);               }         }                 @keyframes slideRight {                0% {                    opacity: 0;                    transform: translateX(30px);                }                100% {                    opacity: 1;                    transform: translateX(0);                }            }                    @keyframes wind {                0% {                    transform: rotate( 0deg );                }                25% {                    transform: rotate( 1deg );                }                75% {                    transform: rotate( -1deg );                }            }                    @keyframes floating {                0% {                    opacity: 1;                    transform: translateY(0px);                }                50% {                    transform: translateY(-10px);                }                100% {                    opacity: 1;                    transform: translateY(0px);                }            }        .animator-hidden { display: none; }</style><g id="freepik--Space--inject-15" class="animable animator-hidden" style="transform-origin: 251.833px 248.889px;"><path id="freepik--Background--inject-15" d="M312,53.15C169.18,14.08,75.28,37.37,39.88,88.33,11.45,129.26,26,164.76,62.6,232.77s4.64,107.41-6.47,165.13C44,461.22,141.43,475.29,230.8,456.53S484.91,355.78,478.58,215C474.52,124.57,389.22,74.26,312,53.15Z" style="fill: rgb(38, 50, 56); transform-origin: 251.833px 248.889px;" class="animable"></path></g><g id="freepik--Stars--inject-15" class="animable" style="transform-origin: 253.045px 248.918px;"><g id="freepik--stars--inject-15" class="animable" style="transform-origin: 253.045px 248.918px;"><path d="M151.52,73.1A1.56,1.56,0,1,1,150,71.54,1.56,1.56,0,0,1,151.52,73.1Z" style="fill: rgb(240, 240, 240); transform-origin: 149.96px 73.0995px;" id="el2f0glve3p99" class="animable"></path><path d="M157.93,73.88A.91.91,0,1,1,157,73,.91.91,0,0,1,157.93,73.88Z" style="fill: rgb(250, 250, 250); transform-origin: 157.02px 73.9098px;" id="elp7654ck8fjl" class="animable"></path><path d="M402.6,276.41a1.58,1.58,0,0,1,2.21-.16,1.56,1.56,0,1,1-2.21.16Z" style="fill: rgb(240, 240, 240); transform-origin: 403.784px 277.429px;" id="elpi6eqtr3v0l" class="animable"></path><path d="M398.27,271.62a.92.92,0,0,1,1.29-.09.9.9,0,0,1,.09,1.28.92.92,0,0,1-1.29.09A.9.9,0,0,1,398.27,271.62Z" style="fill: rgb(250, 250, 250); transform-origin: 398.96px 272.215px;" id="eluw05tl2byl" class="animable"></path><path d="M102.91,417.19a1.27,1.27,0,1,1-1.79,0A1.28,1.28,0,0,1,102.91,417.19Z" style="fill: rgb(250, 250, 250); transform-origin: 102.015px 418.093px;" id="elk25bcxa4mrt" class="animable"></path><path d="M114.64,422.74a2.07,2.07,0,1,1-2.93.05A2.07,2.07,0,0,1,114.64,422.74Z" style="fill: rgb(250, 250, 250); transform-origin: 113.2px 424.227px;" id="elgvv0ri17wnc" class="animable"></path><path d="M338.2,365.47a2.08,2.08,0,1,1-2.08-2.07A2.08,2.08,0,0,1,338.2,365.47Z" style="fill: rgb(250, 250, 250); transform-origin: 336.12px 365.48px;" id="el335t9jzmnyx" class="animable"></path><path d="M332,371.13a1.24,1.24,0,1,1-1.23-1.24A1.24,1.24,0,0,1,332,371.13Z" style="fill: rgb(250, 250, 250); transform-origin: 330.76px 371.13px;" id="eleej7riuucpi" class="animable"></path><path d="M328.5,363.4a1,1,0,1,1-1-1A1,1,0,0,1,328.5,363.4Z" style="fill: rgb(250, 250, 250); transform-origin: 327.5px 363.4px;" id="eldrivc3pm497" class="animable"></path><path d="M266.4,102.29a1.28,1.28,0,1,1-1.28-1.27A1.27,1.27,0,0,1,266.4,102.29Z" style="fill: rgb(250, 250, 250); transform-origin: 265.12px 102.3px;" id="el0rawb7lfxdef" class="animable"></path><path d="M272.37,85.65l2.87,2.82,3.95-.76a.46.46,0,0,1,.49.66l-1.8,3.6,1.94,3.52a.46.46,0,0,1-.47.68l-4-.61-2.76,2.94a.45.45,0,0,1-.78-.24l-.66-4-3.64-1.71a.45.45,0,0,1,0-.82l3.57-1.85.51-4A.45.45,0,0,1,272.37,85.65Z" style="fill: rgb(250, 250, 250); transform-origin: 273.562px 92.0743px;" id="eloh7w9f0wjf" class="animable"></path><path d="M282.15,279.05l.44,3.09,2.79,1.37a.35.35,0,0,1,0,.64l-2.79,1.38-.45,3.08a.35.35,0,0,1-.6.19l-2.18-2.23-3.06.53a.36.36,0,0,1-.38-.52l1.45-2.75-1.45-2.76a.36.36,0,0,1,.38-.51l3.07.53,2.17-2.23A.36.36,0,0,1,282.15,279.05Z" style="fill: rgb(250, 250, 250); transform-origin: 280.734px 283.831px;" id="el1jvplw0gkbu" class="animable"></path></g></g><g id="freepik--Spaceship--inject-15" class="animable" style="transform-origin: 338.565px 188.079px;"><g id="freepik--spaceship--inject-15" class="animable" style="transform-origin: 338.565px 188.079px;"><g id="freepik--spaceship--inject-15" class="animable" style="transform-origin: 377.07px 171.045px;"><polygon points="389.22 177.45 352.66 156.34 381.09 139.92 385.16 142.27 381.09 149.3 389.22 177.45" style="fill: #14FFEC; transform-origin: 370.94px 158.685px;" id="elsgq35mfl0kb" class="animable"></polygon><polygon points="385.16 142.27 385.16 144.61 381.55 150.87 381.09 149.3 385.16 142.27" style="fill: #14FFEC; transform-origin: 383.125px 146.57px;" id="els4svg5qg87" class="animable"></polygon><g id="eltffoddx7lcl"><polygon points="385.16 142.27 385.16 144.61 381.55 150.87 381.09 149.3 385.16 142.27" style="opacity: 0.1; transform-origin: 383.125px 146.57px;" class="animable" id="elpbp1mpvilj9"></polygon></g><path d="M335,146.11c-1.65-1.19-4-1.14-6.71.42-4.93,2.9-8.89,9.88-8.84,15.6,0,2.6.87,4.5,2.25,5.5l-2.21-1h0c-1.83-.88-3-3-3-6.06,0-5.87,4-13,9.08-16,2.82-1.65,5.34-1.66,7-.33Z" style="fill: #14FFEC; transform-origin: 325.745px 155.457px;" id="elcdidnzon3h" class="animable"></path><path d="M343.78,152.94l-10.44,19.81-9.9-4.36-1.71-.76c-1.38-1-2.23-2.9-2.25-5.5-.05-5.72,3.91-12.7,8.84-15.6,2.66-1.56,5.06-1.61,6.71-.42l.34.27Z" style="fill: rgb(69, 90, 100); transform-origin: 331.63px 159.016px;" id="el6mh5483uwil" class="animable"></path><path d="M336.15,167.42l-.75-4.26-14.48-7.63a16.89,16.89,0,0,0-1.44,6.6c0,2.6.87,4.5,2.25,5.5l1.71.76,9.9,4.36Z" style="fill: rgb(55, 71, 79); transform-origin: 327.815px 164.14px;" id="el8v7x2hoh3z5" class="animable"></path><path d="M449.69,221.56a90.68,90.68,0,0,0-9.51-17.25c-6.46-9.12-14.68-18.26-18.88-21-8.09-5.33-73-34.77-73-34.77h0c-2.17-1-5-.7-8.15,1.14-6.7,3.93-12.08,13.42-12,21.2,0,3.55,1.2,6.11,3.09,7.49h0s50.22,36.78,67.6,45c8.07,3.81,19,5,28.39,5.24l1,0a149.46,149.46,0,0,0,18.58-.86v0a3.84,3.84,0,0,0,3.39-3.83A7.45,7.45,0,0,0,449.69,221.56Z" style="fill: rgb(250, 250, 250); transform-origin: 389.175px 188.303px;" id="elaijizwco8k9" class="animable"></path><path d="M340.18,149.67a22.88,22.88,0,0,0-6.71,6.32L384,175.77l2.31-1.34-44.25-25.68A14.76,14.76,0,0,0,340.18,149.67Z" style="fill: rgb(240, 240, 240); transform-origin: 359.89px 162.26px;" id="el66u777b6wqm" class="animable"></path><path d="M446.83,227.72a3.84,3.84,0,0,0,3.32-3.09c-4.43,2.4-27.83-2.34-36.56-6.34-6.88-3.15-44.68-26.77-44.68-26.77l-36.56-23.45-3.58-2.1a20,20,0,0,0-.61,4.9c0,3.55,1.2,6.11,3.09,7.49h0s50.22,36.78,67.6,45c8.07,3.81,19,5,28.39,5.24l1,0a149.46,149.46,0,0,0,18.58-.86Z" style="fill: rgb(240, 240, 240); transform-origin: 389.155px 197.295px;" id="el8w0i8s58yu6" class="animable"></path><path d="M352.58,150.45c-2.1-.52-4.66,0-7.42,1.59-7,4.12-12.65,14.05-12.59,22.19a10.87,10.87,0,0,0,1.8,6.42l-3.13-2.28h0c-1.89-1.38-3.06-3.94-3.09-7.49-.06-7.78,5.32-17.27,12-21.2,3.13-1.84,6-2.12,8.15-1.14h0Z" style="fill: #14FFEC; transform-origin: 340.365px 164.317px;" id="elutdxdmnbqfq" class="animable"></path><g id="elo5ldz0pd068"><path d="M342.06,148.75a14.76,14.76,0,0,0-1.88.92,22.88,22.88,0,0,0-6.71,6.32l5.16,2a23.79,23.79,0,0,1,6.53-6c.46-.26.91-.49,1.35-.7Z" style="opacity: 0.1; transform-origin: 339.99px 153.37px;" class="animable" id="eljlchgjbe9v"></path></g><g id="el2guac60es37"><path d="M333.4,180l1,.7a11,11,0,0,1-1.79-6.42,21.26,21.26,0,0,1,.75-5.54l-1-.62-3.58-2.1c-.08.35-.16.7-.23,1.06l-.06.34c-.05.3-.1.6-.14.89s0,.42-.07.64,0,.43-.07.65c0,.45-.05.89,0,1.32,0,3.55,1.2,6.11,3.09,7.49h0Z" style="opacity: 0.1; transform-origin: 331.294px 173.36px;" class="animable" id="elkbjininpmu7"></path></g><polygon points="332.35 168.06 368.91 189.17 320.16 184.48 307.98 186.83 303.92 184.48 332.35 168.06" style="fill: #14FFEC; transform-origin: 336.415px 178.615px;" id="elyhrbkqid9x" class="animable"></polygon><polygon points="303.92 184.48 303.92 186.83 307.98 189.17 320.16 186.83 368.91 191.52 368.91 189.17 320.16 184.48 307.98 186.83 303.92 184.48" style="fill: #14FFEC; transform-origin: 336.415px 188px;" id="elz9nbax9lwd" class="animable"></polygon><polygon points="343.38 152.32 384 175.77 351.5 128.87 347.44 117.14 343.38 114.79 343.38 152.32" style="fill: #14FFEC; transform-origin: 363.69px 145.28px;" id="eld5xjf8vk3c5" class="animable"></polygon><g id="elzkof2psvend"><polygon points="343.38 152.32 384 175.77 351.5 128.87 347.44 117.14 343.38 114.79 343.38 152.32" style="opacity: 0.15; transform-origin: 363.69px 145.28px;" class="animable" id="elbgms7qzen3p"></polygon></g><polygon points="345.69 113.46 343.38 114.79 347.44 117.14 351.5 128.87 384 175.77 386.31 174.43 353.82 127.53 349.75 115.8 345.69 113.46" style="fill: #14FFEC; transform-origin: 364.845px 144.615px;" id="elgnklkvblln" class="animable"></polygon><path d="M450.22,223.89a7.45,7.45,0,0,0-.53-2.33,82.15,82.15,0,0,0-5.15-10.39c-6.58-2-13,12.19-9.35,17.38,6.85-.21,11.63-.81,11.63-.81v0A3.84,3.84,0,0,0,450.22,223.89Z" style="fill: #14FFEC; transform-origin: 442.175px 219.764px;" id="elq9xtcdxepjm" class="animable"></path><g id="elewzh21uikl9"><polygon points="349.75 115.8 347.44 117.14 351.5 128.87 353.82 127.53 349.75 115.8" style="opacity: 0.1; transform-origin: 350.63px 122.335px;" class="animable" id="elpnsftn4j43"></polygon></g><g id="elx76528raibg"><polygon points="353.82 127.53 386.31 174.43 384 175.77 351.5 128.87 353.82 127.53" style="opacity: 0.05; transform-origin: 368.905px 151.65px;" class="animable" id="elf97qifkx668"></polygon></g><g id="eln70xt40psj"><polygon points="303.92 184.48 307.98 186.83 307.98 189.17 303.92 186.83 303.92 184.48" style="opacity: 0.15; transform-origin: 305.95px 186.825px;" class="animable" id="elapjnoihvlfh"></polygon></g><g id="elfffdigh0od4"><polygon points="320.16 186.83 320.16 184.48 368.91 189.17 368.91 191.52 320.16 186.83" style="opacity: 0.05; transform-origin: 344.535px 188px;" class="animable" id="elt6m3we7pibp"></polygon></g><g id="eltk4notpxmm"><polygon points="320.16 184.48 307.98 186.83 307.98 189.17 320.16 186.83 320.16 184.48" style="opacity: 0.1; transform-origin: 314.07px 186.825px;" class="animable" id="elf2z29g4l7g"></polygon></g><g id="eltkr62g2uxks"><path d="M447.69,227.51l.4-.17.23-.13.32-.21.22-.17.27-.26.19-.2.22-.3.15-.23a2.26,2.26,0,0,0,.17-.35,2.56,2.56,0,0,0,.11-.24,3.28,3.28,0,0,0,.18-.61h0c-2.15,1.16-8.76.65-16-.65a7.44,7.44,0,0,0,1,4.57h0l1.06,0h.34l1-.05h.17l3.1-.18h.06l.93-.07h0l3-.25H445l1.24-.13h.14l.19,0h.09l.17,0v0a2.9,2.9,0,0,0,.65-.14Z" style="opacity: 0.1; transform-origin: 442.13px 226.275px;" class="animable" id="el8a8duxeai1t"></path></g><g id="el4ox6cd2ddpa"><path d="M317.94,154a17.27,17.27,0,0,0-1.42,6.62c0,3.08,1.18,5.18,3,6.06h0l2.21,1c-1.38-1-2.23-2.9-2.25-5.5a16.89,16.89,0,0,1,1.44-6.6Z" style="opacity: 0.1; transform-origin: 319.125px 160.84px;" class="animable" id="elcp2wc4jiz2a"></path></g><path d="M428.88,191.52s-4.34-1.42-11.23,2.06A26.07,26.07,0,0,0,407,203.53l10.18,4.69s7.64-7.67,17.23-9.95A42.57,42.57,0,0,0,428.88,191.52Z" style="fill: rgb(69, 90, 100); transform-origin: 420.705px 199.727px;" id="elbapy1jiix4a" class="animable"></path><path d="M386.31,204a22,22,0,0,1,.38-4.31c.45-2.36.09-4.85-1.53-5.79s-3.78.06-4.28,2.38a23.74,23.74,0,0,0-.47,4.26Z" style="fill: rgb(224, 224, 224); transform-origin: 383.639px 198.775px;" id="elh7s4rebcrvv" class="animable"></path></g><path id="freepik--Cable--inject-15" d="M380.92,200.14l-.54-.22a12.17,12.17,0,0,0-1.53-.51,15.45,15.45,0,0,0-6.12-.46,11.86,11.86,0,0,0-7.94,4.64l-.42.55-.11.14,0,0s0-.07,0,0l0,.08-.18.32c-.22.44-.5.88-.68,1.33a20.47,20.47,0,0,0-.89,2.83,51.74,51.74,0,0,0-1.12,6.56c-.52,4.65-.8,9.73-1.24,15.13-.25,2.7-.48,5.48-.94,8.32A38.59,38.59,0,0,1,357,247.5a22,22,0,0,1-5.43,7.65,25.29,25.29,0,0,1-8.15,5,34,34,0,0,1-9.38,2.28,49.7,49.7,0,0,1-9.68.06,72.78,72.78,0,0,1-18.54-4.59c-5.79-2.21-11.45-4.27-17-6a125.8,125.8,0,0,0-16.19-4.12c-1.29-.29-2.59-.41-3.85-.6s-2.52-.35-3.75-.41-2.44-.21-3.62-.24h-3.49a52.14,52.14,0,0,0-12.19,1.65l-2.57.67-2.31.86-2.13.78c-.66.3-1.27.62-1.86.9-1.17.6-2.25,1.05-3.12,1.58l-2.2,1.36-1.84,1.13-2.79-4.15,2-1.2,2.44-1.44c1-.55,2.16-1,3.46-1.66.65-.29,1.33-.63,2.06-.93l2.35-.83,2.56-.88,2.82-.68a56.62,56.62,0,0,1,13.24-1.52l3.73.08c1.26.07,2.53.23,3.83.34s2.61.3,3.94.52,2.68.38,4,.7a130,130,0,0,1,16.6,4.58c5.62,1.9,11.35,4.12,17.07,6.44a69.84,69.84,0,0,0,17.63,4.77,47,47,0,0,0,9.1.12,31.33,31.33,0,0,0,8.73-1.92,23,23,0,0,0,7.48-4.41,19.41,19.41,0,0,0,5-6.74,36.5,36.5,0,0,0,2.2-8.1c.5-2.75.8-5.49,1.1-8.16.55-5.35.92-10.45,1.55-15.15a52.45,52.45,0,0,1,1.29-6.73,22,22,0,0,1,1.07-3.11c.21-.49.49-.89.72-1.33l.19-.32,0-.08.06-.09,0,0,.12-.15.46-.59a13.41,13.41,0,0,1,4.29-3.55,13,13,0,0,1,4.53-1.36,16.35,16.35,0,0,1,6.51.62,11.62,11.62,0,0,1,1.63.58l.53.23Z" style="fill: rgb(224, 224, 224); transform-origin: 304.055px 230.267px;" class="animable"></path></g></g><g id="freepik--Character--inject-15" class="animable animator-active" style="transform-origin: 186.082px 249.744px;"><g id="freepik--character--inject-15" class="animable" style="transform-origin: 186.082px 249.744px;"><path d="M157,331.56c-6.65,1.39-13.44,2.59-14.13,6.53s5.12,11.38,18.34,8.23,14.25-8.07,13.38-11.73S162.25,330.46,157,331.56Z" style="fill: rgb(38, 50, 56); transform-origin: 158.817px 339.058px;" id="elc5vxywd6h8" class="animable"></path><path d="M251.06,319.64c-3.63-.26-9.41,6.29-13.59,11.4s-7.74,10.23-6.55,12.31,5.55,6.73,14.29.62,11.23-14.21,11.06-17.84S254.17,319.87,251.06,319.64Z" style="fill: rgb(38, 50, 56); transform-origin: 243.483px 333.32px;" id="el7expeo8lagd" class="animable"></path><path d="M169.49,312.73a12.27,12.27,0,0,0-.09,9.64c5.38,13.12,3.17,34.85,3,46.71C161.58,377.45,153,370.5,153,370.5s-12.46-50.8-12.86-57c-.59-9.38,2.55-22,8.4-34.73a322.38,322.38,0,0,1,14.93-29.24l61.46,4A82.48,82.48,0,0,1,230,273.9c1.23,11.14,2,25.23,5,34.33a12.27,12.27,0,0,0,6.42,7.2c12.8,6.1,25.77,23.67,33.65,32.53-2.42,13.5-13.48,14.16-13.48,14.16s-43.38-29.23-47.84-33.56C207,322,200.6,312.79,196.36,299.41s-6.82-19.93-6.82-19.93S173.38,304,169.49,312.73Z" style="fill: rgb(240, 240, 240); transform-origin: 207.57px 311.369px;" id="elsv1h4snbh5e" class="animable"></path><path d="M145.35,344s3.63,14,3.8,17.94c.14,3.3-.85,5.9-5.09,8.63-6.09,3.92-15.48,8.09-21.54,12.72-3.87,3-3.31,7.36,2.91,10,3.82,1.6,11.7,3.41,21.37,0,5.27-1.85,11.73-7.69,16.22-7.95s12.31-.56,14.92-4.63c.87-6.36-1.93-11.34-2.61-15.58-1.14-7-.88-21.07-.94-25.35,0,0-3.75,5.64-14,7S145.35,344,145.35,344Z" style="fill: rgb(69, 90, 100); transform-origin: 149.092px 367.503px;" id="el4xsd1qmpbo8" class="animable"></path><path d="M173.33,335c.25,2.16-.78,4.33-3.44,6.31-5.32,3.94-14.56,5-20.64,2.37-2.81-1.21-4.45-3-4.88-5,0,0-.32-1.61.45-2.29l-.64-2.78a5,5,0,0,0-3,4.29c-.1,2.11,1,7.17,7.6,9.68s17.57,1.23,23-2.91c4.93-3.77,5.1-9.21,4.13-11.41a4.39,4.39,0,0,0-4.19-2.75l.42,2.63A2.46,2.46,0,0,1,173.33,335Z" style="fill: #14FFEC; transform-origin: 158.776px 339.686px;" id="elivx9y2epuvb" class="animable"></path><path d="M237.53,347.13s10.89,7.86,13.68,10.69c2.32,2.36,3.32,5,2,9.82-1.9,7-5.33,13.39-6.73,20.89-.89,4.79,2.48,7.68,8.83,5.44,3.91-1.37,9.67-4.31,15.86-12.47,3.93-5.18,4-12.33,7.15-15.54s7.46-9.47,6.67-14.24c-3.61-5.31-7.73-6.32-11.08-9-5.56-4.46-14.77-15-17.68-18.18,0,0,1,6.69-5.73,14.55S237.53,347.13,237.53,347.13Z" style="fill: rgb(69, 90, 100); transform-origin: 261.307px 359.641px;" id="elt9j49n7umo" class="animable"></path><path d="M252.27,321.71c1.63,1.43,2.32,3.73,1.67,7-1.3,6.5-7.45,13.48-13.72,15.6-2.91,1-5.33.75-7-.43,0,0-1.33-.95-1.21-2l-2.38-1.66a5.07,5.07,0,0,0,.68,5.21c1.35,1.62,5.55,4.65,12.14,2.09s13.86-10.86,15.11-17.57c1.13-6.1-2.39-10.25-4.59-11.24a4.53,4.53,0,0,0-5.05.7l2.27,1.76A2.25,2.25,0,0,1,252.27,321.71Z" style="fill: #14FFEC; transform-origin: 243.489px 333.374px;" id="elzdj5w6v9e" class="animable"></path><path d="M174.35,268.19s3.56,8.11,7.6,11.59c0,0-7.17,16.84-10.69,25s-2.78,13.36-2.78,13.36h0a12.19,12.19,0,0,1,1-5.44c3.89-8.77,20-33.25,20-33.25S182.4,276.66,174.35,268.19Z" style="fill: rgb(224, 224, 224); transform-origin: 178.948px 293.165px;" id="elntz4fgtmyz" class="animable"></path><path d="M113.68,190.56c-.66-1.3-1.49-7.83-1.23-11.44.23-3.08-2.57-4.39-4.39-1.89s-1.39,4.62-2.34,4.14-2.65-5.08-3.78-9.29c-1-3.79-4.75-10.07-11.16-3.57s-3,16.3-.82,21.4,8.65,11.66,12.71,13.49Z" style="fill: rgb(69, 90, 100); transform-origin: 100.38px 184.547px;" id="elw16ssch61b" class="animable"></path><path d="M115.92,194.34c1.1-1.93-1.36-4-4-4.19a11.26,11.26,0,0,0-8.3,3.41c-3,2.91-4.15,7.32-3,10.65,1.28,3.78,4.32,3.17,4.32,3.17Z" style="fill: #14FFEC; transform-origin: 108.185px 198.782px;" id="elrkukscpsnr" class="animable"></path><path d="M174,203.37c-3.38,5.2-17.12,17.31-22.7,21.43s-12.2,7.21-16.12,7.1c-3.28-.09-16-6.38-30.27-24.52-1.21-1.54-2.3-4.22-2-6.09.86-4.74,3.77-7.35,7.63-8.18a7.12,7.12,0,0,1,5.33,1.23c4.33,3.82,14.73,13.65,18.92,14.72,5-1.25,10.38-8.18,15.12-13.87s11.48-16.35,17.49-14.88C180.1,183.41,177.55,200.79,174,203.37Z" style="fill: rgb(240, 240, 240); transform-origin: 139.876px 206.038px;" id="elqd5641v09v9" class="animable"></path><path d="M163.76,242.38c-2,1.5-2,5.74.85,8.75s11.21,9.15,24.78,11c15.23,2.06,27.25-2.37,33-6.3,5.95-4.07,2.68-8.13,2.68-8.13Z" style="fill: #14FFEC; transform-origin: 194.159px 252.516px;" id="elobmlp187nj" class="animable"></path><g id="elvxlnxkg88to"><circle cx="191.06" cy="150.67" r="35.52" style="fill: rgb(69, 90, 100); transform-origin: 191.06px 150.67px; transform: rotate(-22.5deg);" class="animable" id="eleuanehplsn9"></circle></g><path d="M183.81,192.36c.7,9.45-5.22,17.59-13.21,18.18s-12.86-7-13.56-16.45,4.53-18.79,11.21-16.59C176.26,177.32,183.1,182.91,183.81,192.36Z" style="fill: #14FFEC; transform-origin: 170.422px 193.874px;" id="elt3zjw2an3y" class="animable"></path><g id="el21iy3ouf8n4"><path d="M183.81,192.36c.7,9.45-5.22,17.59-13.21,18.18s-12.86-7-13.56-16.45,4.53-18.79,11.21-16.59C176.26,177.32,183.1,182.91,183.81,192.36Z" style="opacity: 0.1; transform-origin: 170.422px 193.874px;" class="animable" id="el5i5i9frrpib"></path></g><path d="M167.2,177.46c-2.48,2.53-5.72,9.38-4.82,19.7.63,7.31,3.26,14,2.59,22.51-.47,5.89-3.91,15-1.21,22.71,1.42,4.05,10.93,12.09,25.37,14.9s33.3-3.81,36.69-10.84c3.52-7.29,4.56-26.18,3.84-35.26S226.6,183.61,219,175.73C197.88,163.39,181.46,166.62,167.2,177.46Z" style="fill: rgb(250, 250, 250); transform-origin: 196.051px 212.873px;" id="elkcdde3gkfsc" class="animable"></path><circle cx="183.19" cy="145.02" r="14.7" style="fill: rgb(38, 50, 56); transform-origin: 183.19px 145.02px;" id="ellmblwgx9ov" class="animable"></circle><path d="M208.59,155.47s-2.38,11.19-3.33,13a5.07,5.07,0,0,1-2.93,2.36l.17-7.87Z" style="fill: rgb(38, 50, 56); transform-origin: 205.46px 163.15px;" id="elwdh9lnjgh8" class="animable"></path><path d="M205.61,139.44a5.5,5.5,0,0,1,4.56,1.61c2,2,.87,8.28-1.58,14.42l-4.48.52Z" style="fill: rgb(38, 50, 56); transform-origin: 207.654px 147.697px;" id="elca6pzlg8smv" class="animable"></path><path d="M202.76,156c.9.54,2.19-1.19,3.3-2.35s4.73-2.75,6.53,1.06-1.59,9-4.44,9.9c-4.92,1.54-5.65-1.61-5.65-1.61l-.43,14.47s1.13,3.45-7.58,4.63-11.27-1.58-8.41-5.1l.07-2.14a31.35,31.35,0,0,1-6.62.34c-3.62-.56-5.89-3.41-7-7.32-1.76-6.28-2.43-11.36-.93-23.71,1.63-13.54,17.39-13.69,25.89-8.33S202.76,156,202.76,156Z" style="fill: rgb(255, 168, 167); transform-origin: 191.932px 157.463px;" id="el1ij3ut2ipm2" class="animable"></path><path d="M202.76,157.5c.46,0,2.18-2.84,3.3-3.86,1.54-1.4-.42-14-.45-14.2-.11-.66.15-1.37,0-2.12a9,9,0,0,0-1.07-2.64c-.95-1.62-2.6-2.45-4.2-3.41a16.87,16.87,0,0,0-9.17-2.4c-3.24,0-5.62.61-9.71,1.45-3.41.71-7.7,1.29-11,.22-2.21-.71-2,2.44-1.2,5.08a11.35,11.35,0,0,0,3.08,4.82c2,2,5.69,3.1,8.37,3.23,7.11.37,14.87-1.2,16.1-1.37,1.67-.23,2.13.3,3,4.72C200.59,150.9,201.24,157.47,202.76,157.5Z" style="fill: rgb(38, 50, 56); transform-origin: 187.675px 143.182px;" id="elz1z16v8dnv" class="animable"></path><path d="M205.6,140.44l5.44-2.92a3,3,0,0,0-4.12-1.37A3.25,3.25,0,0,0,205.6,140.44Z" style="fill: rgb(38, 50, 56); transform-origin: 208.148px 138.12px;" id="el14958bxzxn" class="animable"></path><path d="M186.15,174.85s8.06-1.63,10.88-3.13a9.24,9.24,0,0,0,3.9-3.85,12.81,12.81,0,0,1-2.21,4.55c-2.06,2.63-12.64,4.57-12.64,4.57Z" style="fill: rgb(242, 143, 143); transform-origin: 193.505px 172.43px;" id="elwjelp3e12id" class="animable"></path><path d="M187.58,155.45a1.62,1.62,0,1,0,1.61-1.68A1.64,1.64,0,0,0,187.58,155.45Z" style="fill: rgb(38, 50, 56); transform-origin: 189.199px 155.39px;" id="elyabzoahm1c" class="animable"></path><path d="M189.29,149.35l3.46,1.91a2.06,2.06,0,0,0-.81-2.75A1.92,1.92,0,0,0,189.29,149.35Z" style="fill: rgb(38, 50, 56); transform-origin: 191.138px 149.766px;" id="el7kkhg4k6um" class="animable"></path><path d="M186.88,165.14l-3.69,1.38a1.94,1.94,0,0,0,2.51,1.23A2.08,2.08,0,0,0,186.88,165.14Z" style="fill: rgb(242, 143, 143); transform-origin: 185.093px 166.503px;" id="el01xfrvobfpuv" class="animable"></path><path d="M173.16,150.7l3.16-2.43a1.92,1.92,0,0,0-2.75-.42A2.1,2.1,0,0,0,173.16,150.7Z" style="fill: rgb(38, 50, 56); transform-origin: 174.549px 149.074px;" id="elw6nxm7h9yt" class="animable"></path><path d="M174.13,155a1.62,1.62,0,1,0,1.62-1.68A1.65,1.65,0,0,0,174.13,155Z" style="fill: rgb(38, 50, 56); transform-origin: 175.749px 154.94px;" id="el3ttqv419sxd" class="animable"></path><polygon points="182.88 151.98 182.35 161.7 177.27 159.97 182.88 151.98" style="fill: rgb(242, 143, 143); transform-origin: 180.075px 156.84px;" id="elzcnmhbr047" class="animable"></polygon><path d="M191.06,186.72a36.06,36.06,0,1,1,36.06-36.05A36.1,36.1,0,0,1,191.06,186.72Zm0-71a35,35,0,1,0,35,35A35,35,0,0,0,191.06,115.68Z" style="fill: #14FFEC; transform-origin: 191.06px 150.66px;" id="el9kc520h8mct" class="animable"></path><path d="M210.8,186.51c-10.9,6.3-28.57,6.3-39.48,0-6.91-4-9.78-8.42-7.92-13.56,6,8.68,16.33,13.24,27.66,13.24s21.57-4.43,27.55-13.11C220.47,178.22,217.71,182.52,210.8,186.51Z" style="fill: #14FFEC; transform-origin: 191.011px 182.092px;" id="elox1q1uthvcl" class="animable"></path><path d="M174.55,218.25l-.38,4c-5.39-.51-13.17,3.06-15.68,9-2.18,5.15-2,18.37,2.77,22.37-.54,1.11-1.12,2.36-1.74,3.71-7.09-5.1-7.58-20.85-4.72-27.63C158,222,167.61,217.59,174.55,218.25Z" style="fill: rgb(224, 224, 224); transform-origin: 163.858px 237.758px;" id="el8aqnfs15zyo" class="animable"></path><path d="M175.41,217.29l-1.32-.14a1.12,1.12,0,0,0-1.2.91,13.42,13.42,0,0,0,0,4.44,1.12,1.12,0,0,0,1,.95l2.14.2Z" style="fill: #14FFEC; transform-origin: 174.368px 220.398px;" id="elsl7rvvffx6c" class="animable"></path><path d="M180.18,206.8l18.73,4.64a6.7,6.7,0,0,1,4.85,6.2v11.11a3.73,3.73,0,0,1-4.85,3.8l-18.73-4.64a6.7,6.7,0,0,1-4.85-6.2V210.6A3.73,3.73,0,0,1,180.18,206.8Z" style="fill: rgb(55, 71, 79); transform-origin: 189.545px 219.675px;" id="ellmehp1g7hp" class="animable"></path><path d="M181.37,211.67a4,4,0,0,1,2.91,3.72,2.23,2.23,0,0,1-2.91,2.27,4,4,0,0,1-2.9-3.71A2.24,2.24,0,0,1,181.37,211.67Z" style="fill: #14FFEC; transform-origin: 181.375px 214.668px;" id="els1myj7462ws" class="animable"></path><path d="M181.37,219.76a4,4,0,0,1,2.91,3.72,2.23,2.23,0,0,1-2.91,2.27,4,4,0,0,1-2.9-3.71A2.23,2.23,0,0,1,181.37,219.76Z" style="fill: #14FFEC; transform-origin: 181.375px 222.757px;" id="el7my8salg9np" class="animable"></path><path d="M223.19,248.33c-1.27.8-7.94,2.27-11.69,2.33-3.2.05-4.29,3.06-1.54,4.71s4.89,1,4.49,2-5,3.2-9.23,4.76c-3.83,1.41-10,5.83-2.66,11.85s17.1,1.56,22.17-1.15,11.22-10,12.74-14.36Z" style="fill: rgb(69, 90, 100); transform-origin: 218.303px 262.654px;" id="elvdsfhc9txg" class="animable"></path><path d="M226.88,245.67c-2.08-1-4,1.77-3.95,4.51a11.72,11.72,0,0,0,4.29,8.25c3.28,2.79,7.94,3.6,11.27,2.13,3.79-1.68,2.87-4.76,2.87-4.76Z" style="fill: #14FFEC; transform-origin: 232.194px 253.371px;" id="elv1u97yhach" class="animable"></path><path d="M230.81,184.89c5.68,3,19.45,16.06,24.22,21.43s8.57,11.92,8.82,16c.21,3.4-5.09,17.1-22.49,33.5-1.48,1.4-4.14,2.77-6.1,2.59-5-.45-7.94-3.2-9.15-7.11a7.41,7.41,0,0,1,.77-5.61c3.54-4.82,12.73-16.47,13.44-20.89-1.76-5.1-10.43-9.93-15.17-12.76,0,0-12.05-3.37-11-16.82S227.82,181.48,230.81,184.89Z" style="fill: rgb(240, 240, 240); transform-origin: 238.971px 220.744px;" id="elic6hwlu0yhs" class="animable"></path><path d="M230.81,184.89a5.73,5.73,0,0,0-5-1.49c-6.29,1.38-10.19,8.16-8.66,17.51,1,6.12,3.39,8.82,8,11.11-6.18.86-12.41-3.64-13.74-11.78-1.54-9.35,3.73-19.14,11.64-20.43A7.39,7.39,0,0,1,230.81,184.89Z" style="fill: #14FFEC; transform-origin: 220.976px 195.949px;" id="eli3kd6olxfdf" class="animable"></path></g><g id="freepik--Star--inject-15" class="animable" style="transform-origin: 104.657px 139.922px;"><path d="M99.09,129.09l4.82,4.76,6.66-1.28a.77.77,0,0,1,.83,1.11l-3,6,3.27,5.94a.77.77,0,0,1-.79,1.13l-6.7-1-4.64,4.94a.77.77,0,0,1-1.32-.4l-1.11-6.68L91,140.77a.78.78,0,0,1,0-1.39l6-3.11.84-6.73A.77.77,0,0,1,99.09,129.09Z" style="fill: rgb(250, 250, 250); transform-origin: 101.169px 139.922px;" id="elg6c1wjwjz6f" class="animable"></path><circle cx="117.06" cy="139.19" r="1.68" style="fill: rgb(250, 250, 250); transform-origin: 117.06px 139.19px;" id="elkvb8p1ibjxk" class="animable"></circle></g></g><defs>     <filter id="active" height="200%">         <feMorphology in="SourceAlpha" result="DILATED" operator="dilate" radius="2"></feMorphology>                <feFlood flood-color="#32DFEC" flood-opacity="1" result="PINK"></feFlood>        <feComposite in="PINK" in2="DILATED" operator="in" result="OUTLINE"></feComposite>        <feMerge>            <feMergeNode in="OUTLINE"></feMergeNode>            <feMergeNode in="SourceGraphic"></feMergeNode>        </feMerge>    </filter>    <filter id="hover" height="200%">        <feMorphology in="SourceAlpha" result="DILATED" operator="dilate" radius="2"></feMorphology>                <feFlood flood-color="#ff0000" flood-opacity="0.5" result="PINK"></feFlood>        <feComposite in="PINK" in2="DILATED" operator="in" result="OUTLINE"></feComposite>        <feMerge>            <feMergeNode in="OUTLINE"></feMergeNode>            <feMergeNode in="SourceGraphic"></feMergeNode>        </feMerge>            <feColorMatrix type="matrix" values="0   0   0   0   0                0   1   0   0   0                0   0   0   0   0                0   0   0   1   0 "></feColorMatrix>    </filter></defs></svg>